<svg width="210mm" height="297mm" viewBox="0 0 210 297" version="1.1" id="svg18848" xmlns="http://www.w3.org/2000/svg">

  <defs id="defs18845">


  </defs>
  <g id="layer1">
    <g id="g2538-3-9" transform="matrix(0,3.6475129,-3.6475129,0,317.88256,-106.96585)" style="display:inline">
      <ellipse style="fill:#1c600e;fill-opacity:1;stroke:none;stroke-width:0.3;stroke-dasharray:none;stroke-dashoffset:0;stroke-opacity:1" id="path1016-0-5" cx="45.546074" cy="59.836678" rx="2.9249771" ry="6.1842375"/>
      <path style="fill:none;stroke:#1c600e;stroke-width:0.5;stroke-linecap:butt;stroke-linejoin:miter;stroke-dasharray:none;stroke-opacity:1" d="m 45.608501,65.979661 c 0.01591,0.620472 0.03181,1.240672 0.0477,1.860597" id="path2485-1-8"/>
    </g>
    <style id="style19407">
.MsftOfcResponsive_Fill_487adb {
 fill:#487ADB;
}
</style>
    <path style="fill:none;stroke:#004a01;stroke-width:0.2;stroke-opacity:1;stroke-dasharray:none" d="m 77.220894,59.391745 c 1.999295,-0.303893 3.99837,-0.607753 6.146464,-0.954617 2.148095,-0.346864 4.445126,-0.736715 6.931245,-1.018866 2.48612,-0.282152 5.161142,-0.456609 7.545481,-0.529291 2.384336,-0.07268 4.477826,-0.04361 6.455086,0.01455 1.97725,0.05816 3.83814,0.145389 5.52462,0.261705 1.68648,0.116317 3.19845,0.261699 5.22959,0.599708 2.03114,0.338008 4.5813,0.868583 7.13121,1.399105" id="path5077"/>
  </g>
</svg>